<?xml version="1.0" encoding="UTF-8" standalone="no"?>
<!-- Created with Inkscape (http://www.inkscape.org/) -->

<svg
   xmlns:dc="http://purl.org/dc/elements/1.1/"
   xmlns:cc="http://creativecommons.org/ns#"
   xmlns:rdf="http://www.w3.org/1999/02/22-rdf-syntax-ns#"
   xmlns:svg="http://www.w3.org/2000/svg"
   xmlns="http://www.w3.org/2000/svg"
   xmlns:xlink="http://www.w3.org/1999/xlink"
   xmlns:sodipodi="http://sodipodi.sourceforge.net/DTD/sodipodi-0.dtd"
   xmlns:inkscape="http://www.inkscape.org/namespaces/inkscape"
   width="210mm"
   height="297mm"
   viewBox="0 0 744.09448819 1052.3622047"
   id="svg2"
   version="1.1"
   inkscape:version="0.91 r13725"
   sodipodi:docname="icon.svg">
  <defs
     id="defs4">
    <linearGradient
       inkscape:collect="always"
       id="linearGradient4238">
      <stop
         style="stop-color:#008080;stop-opacity:1;"
         offset="0"
         id="stop4240" />
      <stop
         style="stop-color:#008080;stop-opacity:0;"
         offset="1"
         id="stop4242" />
    </linearGradient>
    <linearGradient
       inkscape:collect="always"
       id="linearGradient4188">
      <stop
         style="stop-color:#d4aa00;stop-opacity:1;"
         offset="0"
         id="stop4190" />
      <stop
         style="stop-color:#c83737;stop-opacity:1"
         offset="1"
         id="stop4192" />
    </linearGradient>
    <linearGradient
       inkscape:collect="always"
       xlink:href="#linearGradient4188"
       id="linearGradient4194"
       x1="153.54318"
       y1="134.89116"
       x2="174.50385"
       y2="159.89243"
       gradientUnits="userSpaceOnUse"
       gradientTransform="matrix(1.9546238,0,0,1.9546238,-246.55146,-225.64229)" />
    <linearGradient
       inkscape:collect="always"
       xlink:href="#linearGradient4238"
       id="linearGradient4244"
       x1="32.577419"
       y1="92.969818"
       x2="27.779196"
       y2="86.908905"
       gradientUnits="userSpaceOnUse"
       gradientTransform="matrix(2.6887266,0,0,2.6887266,-8.3551049,-170.89151)" />
  </defs>
  <sodipodi:namedview
     id="base"
     pagecolor="#ffffff"
     bordercolor="#666666"
     borderopacity="1.0"
     inkscape:pageopacity="0.0"
     inkscape:pageshadow="2"
     inkscape:zoom="2.8"
     inkscape:cx="203.81701"
     inkscape:cy="943.71181"
     inkscape:document-units="px"
     inkscape:current-layer="layer1"
     showgrid="false"
     inkscape:window-width="1920"
     inkscape:window-height="1017"
     inkscape:window-x="-8"
     inkscape:window-y="-8"
     inkscape:window-maximized="1" />
  <metadata
     id="metadata7">
    <rdf:RDF>
      <cc:Work
         rdf:about="">
        <dc:format>image/svg+xml</dc:format>
        <dc:type
           rdf:resource="http://purl.org/dc/dcmitype/StillImage" />
      </cc:Work>
    </rdf:RDF>
  </metadata>
  <g
     inkscape:label="Layer 1"
     inkscape:groupmode="layer"
     id="layer1">
    <path
       id="path3338"
       d="m 66.72101,57.781778 c -2.968354,0 -5.377453,2.409099 -5.377453,5.377452 l 0,40.33091 c 0,2.96834 2.409099,5.37744 5.377453,5.37744 l 53.77454,0 c 2.96836,0 5.37745,-2.4091 5.37745,-5.37744 l 0,-40.33091 c 0,-2.968353 -2.40909,-5.377452 -5.37745,-5.377452 l -53.77454,0 z m 53.77454,37.642171 -53.77454,0 0,-32.264719 53.77454,0 0,32.264719 z m -17.7429,18.821081 c 0,4.30197 4.68913,7.05791 6.988,8.06619 l -32.264735,0 c 2.522025,-0.89535 6.987999,-3.54105 6.987999,-8.06619 l 18.288736,0 z"
       inkscape:connector-curvature="0"
       style="fill:url(#linearGradient4244);fill-opacity:1" />
    <path
       id="path3349"
       d="M 55.653646,72.125709 60.56239,75.882007 86.446635,58.330129 84.773417,52.379843 55.653646,72.125709 Z M 81.403668,36.962101 c 1.811133,2.670937 2.85152,6.535188 2.550859,11.249781 l -5.904839,4.004005 c 0.182365,-6.240288 -2.406356,-14.724883 -7.529329,-18.354815 2.93139,-1.987735 7.79416,-1.454592 10.883309,3.101029 z M 69.25728,37.870318 c -4.954678,-4.91068 -12.715864,0.73705 -8.704155,6.653228 l 9.084194,13.396695 4.094545,-2.776483 C 75.09443,49.860273 72.953125,41.537505 69.25728,37.870318 Z M 43.723698,52.031647 c 1.476542,6.102552 8.400895,11.647213 14.265703,13.786941 l -5.90484,4.004029 c -4.491158,-1.465288 -7.696135,-3.861774 -9.507271,-6.532708 -3.089127,-4.55562 -1.784982,-9.270507 1.146408,-11.258262 z m 18.583527,10.859068 4.094564,-2.776484 -9.084191,-13.396697 c -4.010615,-5.914556 -12.130513,-0.795825 -9.401859,5.624308 2.03924,4.790492 8.978838,9.859598 14.391486,10.548873 z m -5.31304,-27.098397 c 1.212181,1.787621 0.744458,4.21843 -1.04154,5.429516 -1.78764,1.212179 -4.217355,0.74608 -5.429516,-1.041561 -1.212178,-1.78762 -0.746099,-4.217336 1.041542,-5.429495 1.786018,-1.211086 4.217335,-0.7461 5.429514,1.04154 z"
       inkscape:connector-curvature="0"
       style="fill:url(#linearGradient4194);fill-opacity:1" />
    <text
       xml:space="preserve"
       style="font-style:normal;font-weight:normal;font-size:40px;line-height:125%;font-family:sans-serif;letter-spacing:0px;word-spacing:0px;fill:#000000;fill-opacity:1;stroke:none;stroke-width:1px;stroke-linecap:butt;stroke-linejoin:miter;stroke-opacity:1"
       x="4.1037445"
       y="96.757896"
       id="text4246"
       sodipodi:linespacing="125%"><tspan
         sodipodi:role="line"
         id="tspan4248"
         x="4.1037445"
         y="96.757896" /></text>
  </g>
</svg>
